<svg width="16" height="16" viewBox="0 0 16 16" fill="none" xmlns="http://www.w3.org/2000/svg">
<path d="M12.5046 1.00834C12.8786 0.633937 13.4849 0.633937 13.8589 1.00834L14.9922 2.14297C15.3598 2.51094 15.3671 3.10526 15.0086 3.48209L10.7104 8.00026L15.0086 12.5184C15.3671 12.8952 15.3598 13.4896 14.9922 13.8575L13.8589 14.9922C13.4849 15.3666 12.8786 15.3666 12.5046 14.9922L7.99186 10.4744L3.47914 14.9922C3.10518 15.3666 2.49879 15.3666 2.12482 14.9922L1.00777 13.8739C0.633803 13.4995 0.633804 12.8924 1.00777 12.518L5.52049 8.00026L1.00777 3.48249C0.633807 3.10808 0.633807 2.50105 1.00777 2.12664L2.12483 1.00835C2.49879 0.63394 3.10518 0.63394 3.47915 1.00835L7.99186 5.52612L12.5046 1.00834Z" fill="#858585"/>
</svg>
