<svg width="46" height="47" viewBox="0 0 46 47" fill="none" xmlns="http://www.w3.org/2000/svg">
<path d="M20.9166 18.2913C20.9166 17.716 21.383 17.2497 21.9583 17.2497H24.0416C24.6169 17.2497 25.0833 17.716 25.0833 18.2913V34.958C25.0833 35.5333 24.6169 35.9997 24.0416 35.9997H21.9583C21.383 35.9997 20.9166 35.5333 20.9166 34.958V18.2913Z" fill="#0F927A"/>
<path d="M22.9999 10.9997C21.8493 10.9997 20.9166 11.9324 20.9166 13.083C20.9166 14.2336 21.8493 15.1663 22.9999 15.1663C24.1505 15.1663 25.0833 14.2336 25.0833 13.083C25.0833 11.9324 24.1505 10.9997 22.9999 10.9997Z" fill="#0F927A"/>
<path fill-rule="evenodd" clip-rule="evenodd" d="M0.083252 23.4997C0.083252 10.8431 10.3434 0.583008 22.9999 0.583008C35.6564 0.583008 45.9166 10.8431 45.9166 23.4997C45.9166 36.1562 35.6564 46.4163 22.9999 46.4163C10.3434 46.4163 0.083252 36.1562 0.083252 23.4997ZM22.9999 4.74967C12.6446 4.74967 4.24992 13.1443 4.24992 23.4997C4.24992 33.855 12.6446 42.2497 22.9999 42.2497C33.3553 42.2497 41.7499 33.855 41.7499 23.4997C41.7499 13.1443 33.3553 4.74967 22.9999 4.74967Z" fill="#0F927A"/>
</svg>
