<svg width="18" height="18" viewBox="0 0 18 18" fill="none" xmlns="http://www.w3.org/2000/svg">
<path d="M12.8888 12.8893V6.11155C12.8888 5.55926 12.4411 5.11155 11.8888 5.11155H5.11106M12.8888 12.8893V15.7782C12.8888 16.3305 12.4411 16.7782 11.8888 16.7782H2.22217C1.66988 16.7782 1.22217 16.3305 1.22217 15.7782V6.11155C1.22217 5.55926 1.66988 5.11155 2.22217 5.11155H5.11106M12.8888 12.8893H15.7777C16.33 12.8893 16.7777 12.4416 16.7777 11.8893V6.08377V2.22266C16.7777 1.67037 16.33 1.22266 15.7777 1.22266H6.11106C5.55877 1.22266 5.11106 1.67037 5.11106 2.22266V5.11155" stroke="#0F927A" stroke-width="2" stroke-linecap="round"/>
</svg>
