<svg width="29" height="28" viewBox="0 0 29 28" fill="none" xmlns="http://www.w3.org/2000/svg">
<path d="M12.9833 0.5C12.5645 0.5 12.225 0.835787 12.225 1.25V11.5C12.225 11.6381 12.113 11.75 11.975 11.75H1.60831C1.18949 11.75 0.849976 12.0858 0.849976 12.5V15.5C0.849975 15.9142 1.18949 16.25 1.60831 16.25H11.975C12.113 16.25 12.225 16.3619 12.225 16.5V26.75C12.225 27.1642 12.5645 27.5 12.9833 27.5H16.0166C16.4355 27.5 16.775 27.1642 16.775 26.75V16.5C16.775 16.3619 16.8869 16.25 17.025 16.25H27.3916C27.8105 16.25 28.15 15.9142 28.15 15.5V12.5C28.15 12.0858 27.8105 11.75 27.3916 11.75H17.025C16.8869 11.75 16.775 11.6381 16.775 11.5V1.25C16.775 0.835786 16.4355 0.5 16.0166 0.5H12.9833Z" fill="#F8F8F8"/>
</svg>
