<svg width="46" height="47" viewBox="0 0 46 47" fill="none" xmlns="http://www.w3.org/2000/svg">
<path fill-rule="evenodd" clip-rule="evenodd" d="M35.4902 12.5825C35.5011 12.8584 35.7239 13.083 36.0001 13.083H38.0044C39.995 13.083 41.6827 14.5467 41.9642 16.5173L45.5833 41.8507C45.9275 44.2604 44.0577 46.4163 41.6235 46.4163H4.37669C1.94249 46.4163 0.0726416 44.2604 0.416889 41.8507L4.03594 16.5173C4.31745 14.5467 6.00513 13.083 7.99574 13.083H10.0001C10.2762 13.083 10.4991 12.8584 10.5099 12.5825C10.7727 5.91095 16.2642 0.583006 23.0001 0.583008C29.736 0.583008 35.2275 5.91095 35.4902 12.5825ZM14.6815 12.5829C14.6652 12.8586 14.8906 13.083 15.1668 13.083L30.8334 13.083C31.1096 13.083 31.335 12.8586 31.3187 12.5829C31.06 8.21339 27.4346 4.74967 23.0001 4.74967C18.5656 4.74967 14.9401 8.21339 14.6815 12.5829ZM30.8334 17.2497C31.1096 17.2497 31.3334 17.4735 31.3334 17.7497V20.458C31.3334 21.5626 32.2288 22.458 33.3334 22.458H33.5001C34.6047 22.458 35.5001 21.5626 35.5001 20.458V17.7497C35.5001 17.4735 35.7239 17.2497 36.0001 17.2497H36.1253C37.1206 17.2497 37.9644 17.9815 38.1052 18.9668L41.1052 39.9668C41.2773 41.1717 40.3424 42.2497 39.1253 42.2497H6.87487C5.65778 42.2497 4.72285 41.1717 4.89498 39.9668L7.89497 18.9668C8.03573 17.9815 8.87957 17.2497 9.87487 17.2497H10.0001C10.2762 17.2497 10.5001 17.4735 10.5001 17.7497V20.458C10.5001 21.5626 11.3955 22.458 12.5001 22.458H12.6668C13.7713 22.458 14.6668 21.5626 14.6668 20.458L14.6668 17.7497C14.6668 17.4735 14.8906 17.2497 15.1668 17.2497H30.8334Z" fill="#C0C0C0"/>
</svg>
