<svg width="20" height="20" viewBox="0 0 20 20" fill="none" xmlns="http://www.w3.org/2000/svg">
<path fill-rule="evenodd" clip-rule="evenodd" d="M14.325 12.8987L19.705 18.2787C19.8941 18.468 20.0003 18.7246 20.0002 18.9921C20.0001 19.2596 19.8937 19.5161 19.7045 19.7052C19.5153 19.8943 19.2587 20.0005 18.9912 20.0004C18.7236 20.0003 18.4671 19.894 18.278 19.7047L12.898 14.3247C11.2897 15.5704 9.26729 16.1566 7.24214 15.9641C5.21699 15.7716 3.34124 14.8148 1.99649 13.2884C0.651744 11.7619 -0.0609975 9.78056 0.0032639 7.74729C0.0675253 5.71402 0.903963 3.7816 2.34242 2.34315C3.78087 0.904695 5.71329 0.0682577 7.74656 0.00399633C9.77982 -0.0602651 11.7612 0.652477 13.2876 1.99723C14.814 3.34198 15.7708 5.21772 15.9634 7.24287C16.1559 9.26802 15.5697 11.2905 14.324 12.8987H14.325ZM8.00001 13.9997C9.59131 13.9997 11.1174 13.3676 12.2427 12.2424C13.3679 11.1172 14 9.59104 14 7.99974C14 6.40845 13.3679 4.88232 12.2427 3.7571C11.1174 2.63189 9.59131 1.99974 8.00001 1.99974C6.40871 1.99974 4.88259 2.63189 3.75737 3.7571C2.63215 4.88232 2.00001 6.40845 2.00001 7.99974C2.00001 9.59104 2.63215 11.1172 3.75737 12.2424C4.88259 13.3676 6.40871 13.9997 8.00001 13.9997Z" fill="#0F927A"/>
</svg>
