<svg width="65" height="56" viewBox="0 0 65 56" fill="none" xmlns="http://www.w3.org/2000/svg">
<path fill-rule="evenodd" clip-rule="evenodd" d="M5.9375 3H59.0625C59.8913 3 60.6862 3.32924 61.2722 3.91529C61.8583 4.50134 62.1875 5.2962 62.1875 6.125V49.875C62.1875 50.7038 61.8583 51.4987 61.2722 52.0847C60.6862 52.6708 59.8913 53 59.0625 53H5.9375C5.1087 53 4.31384 52.6708 3.72779 52.0847C3.14174 51.4987 2.8125 50.7038 2.8125 49.875V6.125C2.8125 5.2962 3.14174 4.50134 3.72779 3.91529C4.31384 3.32924 5.1087 3 5.9375 3V3Z" stroke="#0F927A" stroke-width="5" stroke-linecap="round" stroke-linejoin="round"/>
<path d="M17.6562 18.625C18.9507 18.625 20 17.5757 20 16.2812C20 14.9868 18.9507 13.9375 17.6562 13.9375C16.3618 13.9375 15.3125 14.9868 15.3125 16.2812C15.3125 17.5757 16.3618 18.625 17.6562 18.625Z" stroke="#0F927A" stroke-width="5" stroke-linecap="round" stroke-linejoin="round"/>
<path fill-rule="evenodd" clip-rule="evenodd" d="M18.4375 28L26.25 34.25L35.625 23.3125L62.1875 43.625V49.875C62.1875 50.7038 61.8583 51.4987 61.2722 52.0847C60.6862 52.6708 59.8913 53 59.0625 53H5.9375C5.1087 53 4.31384 52.6708 3.72779 52.0847C3.14174 51.4987 2.8125 50.7038 2.8125 49.875V43.625L18.4375 28Z" stroke="#0F927A" stroke-width="5" stroke-linejoin="round"/>
</svg>
