<svg width="22" height="22" viewBox="0 0 22 22" fill="none" xmlns="http://www.w3.org/2000/svg">
<path d="M8.25 10.0837C8.25 11.0962 7.42919 11.917 6.41667 11.917C5.40415 11.917 4.58334 11.0962 4.58334 10.0837C4.58334 9.07114 5.40415 8.25033 6.41667 8.25033C7.42919 8.25033 8.25 9.07114 8.25 10.0837Z" fill="#C0C0C0"/>
<path fill-rule="evenodd" clip-rule="evenodd" d="M3.66667 3.66699C3.66667 2.14821 4.89789 0.916992 6.41667 0.916992H18.3333C19.8521 0.916992 21.0833 2.14821 21.0833 3.66699V15.5837C21.0833 17.1024 19.8521 18.3337 18.3333 18.3337C18.3333 19.8524 17.1021 21.0837 15.5833 21.0837H3.66667C2.14789 21.0837 0.916672 19.8524 0.916672 18.3337V6.41699C0.916672 4.89821 2.14789 3.66699 3.66667 3.66699ZM19.25 15.5837C19.25 16.0043 18.9666 16.3588 18.5803 16.4667C18.4474 16.5038 18.3333 16.3884 18.3333 16.2503V6.41699C18.3333 4.89821 17.1021 3.66699 15.5833 3.66699H5.75C5.61193 3.66699 5.49655 3.55298 5.53367 3.41999C5.6415 3.03371 5.99599 2.75033 6.41667 2.75033H18.3333C18.8396 2.75033 19.25 3.16073 19.25 3.66699V15.5837ZM3.66667 5.50033C3.16041 5.50033 2.75001 5.91073 2.75001 6.41699V18.3337C2.75001 18.5083 2.95809 18.5483 3.07382 18.4174L5.9611 15.1536C6.81528 14.188 8.17872 13.976 9.25651 14.5176C9.47777 14.6288 9.75258 14.6094 9.92534 14.432L12.577 11.7093C13.5061 10.7554 14.9547 10.6224 16.0286 11.3104C16.2166 11.4309 16.5 11.3077 16.5 11.0844V6.41699C16.5 5.91073 16.0896 5.50033 15.5833 5.50033H3.66667ZM11.2141 15.7364C11.0315 15.9239 11.0244 16.2205 11.1978 16.4165L13.4061 18.9129C13.596 19.1275 13.8687 19.2503 14.1551 19.2503H15.5833C16.0896 19.2503 16.5 18.8399 16.5 18.3337V14.7259C16.5 14.4652 16.3982 14.2149 16.2164 14.0282L15.2038 12.9884C14.844 12.619 14.2503 12.619 13.8904 12.9884L11.2141 15.7364ZM10.702 19.2503C10.9174 19.2503 11.032 18.996 10.8892 18.8347L8.70742 16.3683C8.34259 15.9559 7.69908 15.9559 7.33426 16.3683L5.15245 18.8347C5.00971 18.996 5.12427 19.2503 5.3397 19.2503H10.702Z" fill="#C0C0C0"/>
</svg>
