<svg width="12" height="12" viewBox="0 0 12 12" fill="none" xmlns="http://www.w3.org/2000/svg">
<path d="M7.17495 6.00048L10.7583 2.42548C10.9152 2.26856 11.0034 2.05573 11.0034 1.83381C11.0034 1.6119 10.9152 1.39907 10.7583 1.24215C10.6014 1.08523 10.3885 0.99707 10.1666 0.99707C9.9447 0.99707 9.73187 1.08523 9.57495 1.24215L5.99995 4.82548L2.42495 1.24215C2.26803 1.08523 2.0552 0.99707 1.83328 0.99707C1.61136 0.99707 1.39854 1.08523 1.24162 1.24215C1.0847 1.39907 0.996539 1.6119 0.996539 1.83381C0.996539 2.05573 1.0847 2.26856 1.24162 2.42548L4.82495 6.00048L1.24162 9.57548C1.16351 9.65295 1.10151 9.74512 1.05921 9.84667C1.0169 9.94822 0.995117 10.0571 0.995117 10.1671C0.995117 10.2772 1.0169 10.3861 1.05921 10.4876C1.10151 10.5892 1.16351 10.6813 1.24162 10.7588C1.31908 10.8369 1.41125 10.8989 1.5128 10.9412C1.61435 10.9835 1.72327 11.0053 1.83328 11.0053C1.94329 11.0053 2.05221 10.9835 2.15376 10.9412C2.25531 10.8989 2.34748 10.8369 2.42495 10.7588L5.99995 7.17548L9.57495 10.7588C9.65242 10.8369 9.74459 10.8989 9.84614 10.9412C9.94768 10.9835 10.0566 11.0053 10.1666 11.0053C10.2766 11.0053 10.3855 10.9835 10.4871 10.9412C10.5886 10.8989 10.6808 10.8369 10.7583 10.7588C10.8364 10.6813 10.8984 10.5892 10.9407 10.4876C10.983 10.3861 11.0048 10.2772 11.0048 10.1671C11.0048 10.0571 10.983 9.94822 10.9407 9.84667C10.8984 9.74512 10.8364 9.65295 10.7583 9.57548L7.17495 6.00048Z" fill="#0F927A"/>
</svg>
