<svg width="18" height="19" viewBox="0 0 18 19" fill="none" xmlns="http://www.w3.org/2000/svg">
<path d="M0.392612 1.5812C0.202463 1.77134 0.202462 2.07963 0.392612 2.26978L6.91578 8.79289C7.3063 9.18342 7.30631 9.81658 6.91578 10.2071L0.392615 16.7302C0.202466 16.9204 0.202466 17.2287 0.392615 17.4188L1.08121 18.1074C1.27136 18.2975 1.57965 18.2975 1.7698 18.1074L8.29297 11.5843C8.68349 11.1937 9.31665 11.1937 9.70718 11.5843L16.2302 18.1072C16.4204 18.2974 16.7286 18.2974 16.9188 18.1072L17.6074 17.4187C17.7975 17.2285 17.7975 16.9202 17.6074 16.7301L11.0844 10.2071C10.6938 9.81659 10.6938 9.18342 11.0844 8.79289L17.6074 2.26993C17.7975 2.07978 17.7975 1.77149 17.6074 1.58134L16.9188 0.892758C16.7286 0.70261 16.4204 0.70261 16.2302 0.892757L9.70718 7.41573C9.31665 7.80625 8.68349 7.80625 8.29297 7.41573L1.76979 0.892611C1.57965 0.702463 1.27135 0.702463 1.0812 0.892611L0.392612 1.5812Z" fill="#858585"/>
</svg>
