<svg width="47" height="47" viewBox="0 0 47 47" fill="none" xmlns="http://www.w3.org/2000/svg">
<path fill-rule="evenodd" clip-rule="evenodd" d="M10.9999 0.583008C9.84933 0.583008 8.91658 1.51575 8.91658 2.66634C8.91658 3.81693 9.84933 4.74967 10.9999 4.74967H16.7291C17.0167 4.74967 17.2499 4.98286 17.2499 5.27051V8.39551C17.2499 8.68316 17.0167 8.91634 16.7291 8.91634H12.0416C11.4663 8.91634 10.9999 9.38271 10.9999 9.95801V13.6038C10.9999 13.8915 10.7667 14.1247 10.4791 14.1247L1.62492 14.1247C1.04962 14.1247 0.583252 14.591 0.583252 15.1663V25.583C0.583252 26.1583 1.04962 26.6247 1.62492 26.6247H10.4791C10.7667 26.6247 10.9999 26.8579 10.9999 27.1455V30.7913C10.9999 31.3666 11.4663 31.833 12.0416 31.833H26.6249C27.2002 31.833 27.6666 31.3666 27.6666 30.7913V27.1455C27.6666 26.8579 27.8998 26.6247 28.1874 26.6247H33.3958C33.6834 26.6247 33.9166 26.8579 33.9166 27.1455V34.958C33.9166 35.5333 34.383 35.9997 34.9583 35.9997H45.3749C45.9502 35.9997 46.4166 35.5333 46.4166 34.958V22.458C46.4166 17.8556 42.6856 14.1247 38.0833 14.1247H28.1874C27.8998 14.1247 27.6666 13.8915 27.6666 13.6038V9.95801C27.6666 9.38271 27.2002 8.91634 26.6249 8.91634H21.9374C21.6498 8.91634 21.4166 8.68316 21.4166 8.39551V5.27051C21.4166 4.98286 21.6498 4.74967 21.9374 4.74967L27.6666 4.74967C28.8172 4.74967 29.7499 3.81693 29.7499 2.66634C29.7499 1.51575 28.8172 0.583008 27.6666 0.583008H10.9999ZM15.6874 27.6663C15.3998 27.6663 15.1666 27.4332 15.1666 27.1455V13.6038C15.1666 13.3162 15.3998 13.083 15.6874 13.083H22.9791C23.2667 13.083 23.4999 13.3162 23.4999 13.6038V27.1455C23.4999 27.4332 23.2667 27.6663 22.9791 27.6663H15.6874ZM10.4791 18.2913C10.7667 18.2913 10.9999 18.5245 10.9999 18.8122V21.9372C10.9999 22.2248 10.7667 22.458 10.4791 22.458H5.27075C4.9831 22.458 4.74992 22.2248 4.74992 21.9372L4.74992 18.8122C4.74992 18.5245 4.9831 18.2913 5.27075 18.2913H10.4791ZM27.6666 21.9372C27.6666 22.2248 27.8998 22.458 28.1874 22.458H35.9999C37.1505 22.458 38.0833 23.3907 38.0833 24.5413V31.3122C38.0833 31.5998 38.3164 31.833 38.6041 31.833H41.7291C42.0167 31.833 42.2499 31.5998 42.2499 31.3122V22.458C42.2499 20.1568 40.3844 18.2913 38.0833 18.2913H28.1874C27.8998 18.2913 27.6666 18.5245 27.6666 18.8122V21.9372Z" fill="#0F927A"/>
<path d="M40.1666 38.083C37.8654 38.083 35.9999 39.9485 35.9999 42.2497C35.9999 44.5509 37.8654 46.4163 40.1666 46.4163C42.4678 46.4163 44.3333 44.5509 44.3333 42.2497C44.3333 39.9485 42.4678 38.083 40.1666 38.083Z" fill="#0F927A"/>
</svg>
