<svg width="18" height="20" viewBox="0 0 18 20" fill="none" xmlns="http://www.w3.org/2000/svg">
<path d="M9 1.84061L9.88218 3.20383C10.3965 3.99864 11.3977 4.32393 12.281 3.98325L13.796 3.39892L13.7084 5.02032C13.6573 5.96566 14.2761 6.8173 15.1909 7.06086L16.76 7.47861L15.7362 8.73887C15.1392 9.47366 15.1392 10.5263 15.7362 11.2611L16.76 12.5214L15.1909 12.9391C14.2761 13.1827 13.6573 14.0343 13.7084 14.9797L13.796 16.6011L12.281 16.0168C11.3977 15.6761 10.3965 16.0014 9.88218 16.7962L9 18.1594L8.11782 16.7962C7.60347 16.0014 6.60231 15.6761 5.71901 16.0168L4.20403 16.6011L4.29161 14.9797C4.34267 14.0343 3.72392 13.1827 2.80907 12.9391L1.23996 12.5214L2.26385 11.2611C2.86081 10.5263 2.86081 9.47366 2.26385 8.73887L1.23996 7.47861L2.80907 7.06086C3.72392 6.81729 4.34267 5.96566 4.29161 5.02032L4.20403 3.39892L5.71901 3.98325C6.6023 4.32393 7.60347 3.99864 8.11782 3.20383L9 1.84061Z" fill="url(#paint0_linear_613_1964)" stroke="url(#paint1_linear_613_1964)" stroke-width="2"/>
<defs>
<linearGradient id="paint0_linear_613_1964" x1="19.4598" y1="1.63592e-06" x2="-4.12568" y2="4.87366" gradientUnits="userSpaceOnUse">
<stop stop-color="#5DDE6A"/>
<stop offset="1" stop-color="#63AFD0"/>
</linearGradient>
<linearGradient id="paint1_linear_613_1964" x1="19.4598" y1="1.63592e-06" x2="-4.12568" y2="4.87366" gradientUnits="userSpaceOnUse">
<stop stop-color="#5DDE6A"/>
<stop offset="1" stop-color="#63AFD0"/>
</linearGradient>
</defs>
</svg>
