<svg width="22" height="18" viewBox="0 0 22 18" fill="none" xmlns="http://www.w3.org/2000/svg">
<path fill-rule="evenodd" clip-rule="evenodd" d="M19.7083 2.66699C19.7083 1.35532 18.4771 0.291992 16.9583 0.291992H3.66667C2.14788 0.291992 0.916666 1.35532 0.916666 2.66699V15.3337C0.916666 15.7003 1.01285 16.0475 1.18462 16.3575L1.17426 16.3668L1.20379 16.3914C1.65427 17.1722 2.58793 17.7087 3.66667 17.7087H18.3333C19.8521 17.7087 21.0833 16.6453 21.0833 15.3337V5.83366C21.0833 4.95457 20.5303 4.18704 19.7083 3.77639V2.66699ZM2.75 2.66699C2.75 3.10422 3.10444 3.45866 3.54167 3.45866H17.375C17.6511 3.45866 17.875 3.2348 17.875 2.95866V2.66699C17.875 2.22977 17.4646 1.87533 16.9583 1.87533H3.66667C3.16041 1.87533 2.75 2.22977 2.75 2.66699ZM2.75 14.1253C2.75 15.2299 3.64543 16.1253 4.75 16.1253H18.3333C18.8396 16.1253 19.25 15.7709 19.25 15.3337V11.2972V5.83366C19.25 5.39643 18.8396 5.04199 18.3333 5.04199H3.25C2.97386 5.04199 2.75 5.26585 2.75 5.54199V14.1253Z" fill="#F8F8F8"/>
</svg>
